<svg width="36" height="28" viewBox="0 0 36 28" fill="none" xmlns="http://www.w3.org/2000/svg">
<path d="M30.4755 2.55587C28.181 1.50305 25.7205 0.727374 23.1478 0.283114C23.101 0.27454 23.0542 0.295967 23.0301 0.338822C22.7136 0.901644 22.3631 1.63589 22.1176 2.21301C19.3506 1.79875 16.5978 1.79875 13.8875 2.21301C13.642 1.62306 13.2787 0.901644 12.9609 0.338822C12.9367 0.297396 12.8899 0.275969 12.8431 0.283114C10.2719 0.725954 7.81134 1.50163 5.5154 2.55587C5.49553 2.56444 5.47849 2.57874 5.46718 2.5973C0.800088 9.56984 -0.478425 16.371 0.14877 23.0878C0.151608 23.1207 0.170055 23.1521 0.195597 23.1721C3.27481 25.4334 6.25756 26.8062 9.18492 27.7162C9.23177 27.7305 9.28141 27.7133 9.31122 27.6747C10.0037 26.7291 10.621 25.732 11.1502 24.6835C11.1814 24.622 11.1516 24.5492 11.0878 24.5249C10.1087 24.1535 9.1764 23.7007 8.27959 23.1864C8.20866 23.145 8.20298 23.0435 8.26824 22.9949C8.45696 22.8535 8.64573 22.7064 8.82593 22.5578C8.85853 22.5307 8.90397 22.525 8.9423 22.5421C14.8339 25.232 21.2123 25.232 27.0344 22.5421C27.0728 22.5236 27.1182 22.5293 27.1522 22.5564C27.3325 22.705 27.5212 22.8535 27.7113 22.9949C27.7766 23.0435 27.7723 23.145 27.7014 23.1864C26.8046 23.7106 25.8723 24.1535 24.8918 24.5235C24.8279 24.5478 24.7995 24.622 24.8308 24.6835C25.3714 25.7305 25.9887 26.7276 26.6683 27.6733C26.6967 27.7133 26.7478 27.7305 26.7946 27.7162C29.7362 26.8062 32.7189 25.4334 35.7981 23.1721C35.8251 23.1521 35.8422 23.1221 35.845 23.0893C36.5956 15.3239 34.5877 8.57847 30.5223 2.59872C30.5124 2.57874 30.4954 2.56444 30.4755 2.55587ZM12.03 18.998C10.2562 18.998 8.7947 17.3695 8.7947 15.3696C8.7947 13.3697 10.2279 11.7412 12.03 11.7412C13.8463 11.7412 15.2937 13.384 15.2653 15.3696C15.2653 17.3695 13.8321 18.998 12.03 18.998ZM23.9921 18.998C22.2184 18.998 20.7568 17.3695 20.7568 15.3696C20.7568 13.3697 22.19 11.7412 23.9921 11.7412C25.8084 11.7412 27.2558 13.384 27.2275 15.3696C27.2275 17.3695 25.8084 18.998 23.9921 18.998Z" fill="#1C1C1C"/>
</svg>
