<svg width="20" height="20" viewBox="0 0 20 20" fill="none" xmlns="http://www.w3.org/2000/svg">
<path d="M16.9308 3.68648C15.6561 3.10567 14.2892 2.67775 12.8599 2.43267C12.8339 2.42794 12.8079 2.43976 12.7945 2.4634C12.6187 2.77389 12.4239 3.17896 12.2876 3.49733C10.7503 3.2688 9.22099 3.2688 7.71527 3.49733C7.57887 3.17188 7.37707 2.77389 7.20048 2.4634C7.18707 2.44055 7.16107 2.42873 7.13504 2.43267C5.70659 2.67697 4.33963 3.10489 3.06411 3.68648C3.05307 3.69121 3.04361 3.6991 3.03732 3.70933C0.444493 7.55588 -0.265792 11.3079 0.0826501 15.0134C0.0842267 15.0315 0.0944749 15.0488 0.108665 15.0599C1.81934 16.3073 3.47642 17.0647 5.10273 17.5667C5.12876 17.5746 5.15634 17.5651 5.1729 17.5438C5.55761 17.0221 5.90054 16.4721 6.19456 15.8936C6.21192 15.8597 6.19535 15.8195 6.15989 15.8061C5.61594 15.6013 5.098 15.3514 4.59977 15.0677C4.56037 15.0449 4.55721 14.9889 4.59347 14.9621C4.69831 14.8841 4.80318 14.8029 4.9033 14.721C4.92141 14.706 4.94665 14.7028 4.96794 14.7123C8.24107 16.1962 11.7846 16.1962 15.0191 14.7123C15.0404 14.7021 15.0657 14.7052 15.0846 14.7202C15.1847 14.8021 15.2895 14.8841 15.3952 14.9621C15.4314 14.9889 15.4291 15.0449 15.3897 15.0677C14.8914 15.3569 14.3735 15.6013 13.8288 15.8054C13.7933 15.8188 13.7775 15.8597 13.7949 15.8936C14.0952 16.4713 14.4381 17.0213 14.8157 17.543C14.8315 17.5651 14.8599 17.5746 14.8859 17.5667C16.5201 17.0647 18.1772 16.3073 19.8879 15.0599C19.9028 15.0488 19.9123 15.0323 19.9139 15.0141C20.3309 10.7302 19.2154 7.00897 16.9568 3.71012C16.9513 3.6991 16.9419 3.69121 16.9308 3.68648ZM6.68335 12.7571C5.69792 12.7571 4.88594 11.8587 4.88594 10.7554C4.88594 9.65213 5.68217 8.75375 6.68335 8.75375C7.69239 8.75375 8.49651 9.66002 8.48073 10.7554C8.48073 11.8587 7.68451 12.7571 6.68335 12.7571ZM13.329 12.7571C12.3435 12.7571 11.5316 11.8587 11.5316 10.7554C11.5316 9.65213 12.3278 8.75375 13.329 8.75375C14.338 8.75375 15.1421 9.66002 15.1264 10.7554C15.1264 11.8587 14.338 12.7571 13.329 12.7571Z" fill="#A5A5A5"/>
</svg>
