<svg width="36" height="36" viewBox="0 0 36 36" fill="none" xmlns="http://www.w3.org/2000/svg">
<path d="M30.4755 6.55538C28.181 5.50256 25.7205 4.72689 23.1478 4.28263C23.101 4.27405 23.0542 4.29548 23.0301 4.33833C22.7136 4.90116 22.3631 5.6354 22.1176 6.21252C19.3506 5.79827 16.5978 5.79827 13.8875 6.21252C13.642 5.62258 13.2787 4.90116 12.9609 4.33833C12.9367 4.29691 12.8899 4.27548 12.8431 4.28263C10.2719 4.72547 7.81134 5.50114 5.5154 6.55538C5.49553 6.56395 5.47849 6.57825 5.46718 6.59681C0.800088 13.5693 -0.478425 20.3705 0.14877 27.0873C0.151608 27.1202 0.170055 27.1516 0.195597 27.1716C3.27481 29.4329 6.25756 30.8057 9.18492 31.7157C9.23177 31.73 9.28141 31.7128 9.31122 31.6743C10.0037 30.7286 10.621 29.7315 11.1502 28.683C11.1814 28.6216 11.1516 28.5487 11.0878 28.5244C10.1087 28.153 9.1764 27.7002 8.27959 27.1859C8.20866 27.1445 8.20298 27.043 8.26824 26.9945C8.45696 26.853 8.64573 26.7059 8.82593 26.5573C8.85853 26.5302 8.90397 26.5245 8.9423 26.5416C14.8339 29.2315 21.2123 29.2315 27.0344 26.5416C27.0728 26.5231 27.1182 26.5288 27.1522 26.5559C27.3325 26.7045 27.5212 26.853 27.7113 26.9945C27.7766 27.043 27.7723 27.1445 27.7014 27.1859C26.8046 27.7101 25.8723 28.153 24.8918 28.523C24.8279 28.5473 24.7995 28.6216 24.8308 28.683C25.3714 29.7301 25.9887 30.7272 26.6683 31.6728C26.6967 31.7128 26.7478 31.73 26.7946 31.7157C29.7362 30.8057 32.7189 29.4329 35.7981 27.1716C35.8251 27.1516 35.8422 27.1216 35.845 27.0888C36.5956 19.3234 34.5877 12.578 30.5223 6.59823C30.5124 6.57825 30.4954 6.56395 30.4755 6.55538ZM12.03 22.9975C10.2562 22.9975 8.7947 21.369 8.7947 19.3691C8.7947 17.3692 10.2279 15.7407 12.03 15.7407C13.8463 15.7407 15.2937 17.3835 15.2653 19.3691C15.2653 21.369 13.8321 22.9975 12.03 22.9975ZM23.9921 22.9975C22.2184 22.9975 20.7568 21.369 20.7568 19.3691C20.7568 17.3692 22.19 15.7407 23.9921 15.7407C25.8084 15.7407 27.2558 17.3835 27.2275 19.3691C27.2275 21.369 25.8084 22.9975 23.9921 22.9975Z" fill="#F0F0F0"/>
</svg>
