<svg width="64" height="64" viewBox="0 0 64 64" fill="none" xmlns="http://www.w3.org/2000/svg">
<rect width="64" height="64" rx="16" fill="#282828"/>
<path d="M43.8586 32.0002C43.8585 34.9033 42.9976 37.7411 41.3847 40.155C39.7717 42.569 37.4791 44.4505 34.7968 45.5615C32.1145 46.6726 29.163 46.9633 26.3155 46.3969C23.468 45.8304 20.8524 44.4324 18.7995 42.3794C16.7465 40.3265 15.3485 37.7109 14.7821 34.8634C14.2157 32.0159 14.5064 29.0644 15.6174 26.3821C16.7284 23.6998 18.6099 21.4072 21.0239 19.7942C23.4378 18.1813 26.2758 17.3204 29.179 17.3203C33.071 17.3246 36.8023 18.8726 39.5543 21.6246C42.3064 24.3767 43.8544 28.1081 43.8586 32.0002Z" fill="url(#paint0_linear_1733_14822)" stroke="#282828"/>
<path d="M46.5305 32.0002C46.5304 34.9033 45.6695 37.7411 44.0566 40.155C42.4436 42.569 40.151 44.4505 37.4687 45.5615C34.7864 46.6726 31.8349 46.9633 28.9874 46.3969C26.1399 45.8304 23.5243 44.4324 21.4713 42.3794C19.4184 40.3265 18.0203 37.7109 17.4539 34.8634C16.8875 32.0159 17.1782 29.0644 18.2893 26.3821C19.4003 23.6998 21.2818 21.4072 23.6958 19.7942C26.1097 18.1813 28.9477 17.3204 31.8509 17.3203C35.7428 17.3246 39.4741 18.8726 42.2262 21.6246C44.9783 24.3767 46.5262 28.1081 46.5305 32.0002Z" fill="url(#paint1_linear_1733_14822)" stroke="#282828"/>
<path d="M49.4992 32.0002C49.4991 34.9033 48.6382 37.7411 47.0253 40.155C45.4123 42.569 43.1197 44.4505 40.4375 45.5615C37.7552 46.6726 34.8036 46.9633 31.9561 46.3969C29.1086 45.8304 26.493 44.4324 24.4401 42.3794C22.3872 40.3265 20.9891 37.7109 20.4227 34.8634C19.8563 32.0159 20.147 29.0644 21.258 26.3821C22.3691 23.6998 24.2505 21.4072 26.6645 19.7942C29.0785 18.1813 31.9165 17.3204 34.8197 17.3203C38.7116 17.3246 42.4429 18.8726 45.1949 21.6246C47.947 24.3767 49.495 28.1081 49.4992 32.0002Z" fill="url(#paint2_linear_1733_14822)" stroke="#282828"/>
<path d="M32.1196 34.4976L31.4359 35.3916C30.237 34.7556 29.6363 33.644 29.6328 31.9947C29.6328 29.1953 31.3676 27.954 34.8191 27.954C35.5397 27.9445 36.2591 28.0151 36.9645 28.1645L36.2393 29.112C35.7687 29.0461 35.2941 29.0153 34.8191 29.0199C32.0833 29.0199 30.8827 29.7928 30.8827 31.9947C30.8827 33.2519 31.2751 34.0467 32.1196 34.4976Z" fill="url(#paint3_linear_1733_14822)"/>
<path d="M37.5202 29.5007L38.204 28.6067C39.4003 29.2436 40.001 30.3473 40.0053 31.9948C40.0053 34.7951 38.2697 36.0479 34.819 36.0479C34.0984 36.0576 33.379 35.9867 32.6737 35.8364L33.3989 34.889C33.8694 34.9552 34.344 34.9863 34.819 34.982C37.5539 34.982 38.7546 34.1977 38.7546 31.9948C38.7546 30.7385 38.363 29.9481 37.5202 29.5007Z" fill="url(#paint4_linear_1733_14822)"/>
<defs>
<linearGradient id="paint0_linear_1733_14822" x1="14" y1="16.8203" x2="43.3655" y2="48.1109" gradientUnits="userSpaceOnUse">
<stop stop-color="#F0F0F0"/>
<stop offset="1" stop-color="#999999"/>
</linearGradient>
<linearGradient id="paint1_linear_1733_14822" x1="16.6719" y1="16.8203" x2="46.0374" y2="48.1109" gradientUnits="userSpaceOnUse">
<stop stop-color="#F0F0F0"/>
<stop offset="1" stop-color="#999999"/>
</linearGradient>
<linearGradient id="paint2_linear_1733_14822" x1="19.6406" y1="16.8203" x2="49.0061" y2="48.1109" gradientUnits="userSpaceOnUse">
<stop stop-color="#F0F0F0"/>
<stop offset="1" stop-color="#999999"/>
</linearGradient>
<linearGradient id="paint3_linear_1733_14822" x1="30.0852" y1="27.9531" x2="41.4645" y2="33.327" gradientUnits="userSpaceOnUse">
<stop stop-color="#8247E5"/>
<stop offset="1" stop-color="#3E1C8D"/>
</linearGradient>
<linearGradient id="paint4_linear_1733_14822" x1="30.0852" y1="27.9531" x2="41.4645" y2="33.327" gradientUnits="userSpaceOnUse">
<stop stop-color="#8247E5"/>
<stop offset="1" stop-color="#3E1C8D"/>
</linearGradient>
</defs>
</svg>
