<svg width="64" height="64" viewBox="0 0 64 64" fill="none" xmlns="http://www.w3.org/2000/svg">
<rect width="64" height="64" rx="12" fill="#E6E0EF"/>
<path fill-rule="evenodd" clip-rule="evenodd" d="M21.95 18H42.05C44.8031 18 46.1796 18 47.2349 18.5273C48.2035 19.0112 48.9888 19.7965 49.4727 20.7651C50 21.8204 50 23.1969 50 25.95V37.2932C50 40.0463 50 41.4229 49.4727 42.4781C48.9888 43.4467 48.2035 44.232 47.2349 44.716C46.1796 45.2432 44.8031 45.2432 42.05 45.2432C42.0224 45.2432 42 45.2656 42 45.2932V46C42 46.5523 41.5523 47 41 47H39C38.4477 47 38 46.5523 38 46C38 45.5821 37.6612 45.2432 37.2432 45.2432H26.7568C26.3388 45.2432 26 45.5821 26 46C26 46.5523 25.5523 47 25 47H23C22.4477 47 22 46.5523 22 46V45.2932C22 45.2656 21.9776 45.2432 21.95 45.2432C19.1969 45.2432 17.8204 45.2432 16.7651 44.716C15.7965 44.232 15.0112 43.4467 14.5273 42.4781C14 41.4229 14 40.0463 14 37.2932V25.95C14 23.1969 14 21.8204 14.5273 20.7651C15.0112 19.7965 15.7965 19.0112 16.7651 18.5273C17.8204 18 19.1969 18 21.95 18Z" fill="url(#paint0_linear_1841_18975)"/>
<g clip-path="url(#clip0_1841_18975)">
<g clip-path="url(#clip1_1841_18975)">
<path fill-rule="evenodd" clip-rule="evenodd" d="M42.7914 32.5838L42.7936 32.5861C42.4584 32.4511 42.2221 32.1226 42.2221 31.7412C42.2221 31.3598 42.4561 31.0414 42.7891 30.9098C42.9669 30.8401 43.0648 30.6466 43.0141 30.4621C42.9039 30.0604 42.7464 29.6813 42.545 29.3281C42.4505 29.1638 42.2469 29.0952 42.0725 29.1706C41.7418 29.3123 41.3514 29.2493 41.0814 28.9692C40.8001 28.6992 40.7383 28.3077 40.8811 27.9758C40.9576 27.8003 40.8845 27.5967 40.7191 27.5011C40.3704 27.3008 39.989 27.1456 39.5874 27.0364C39.4029 26.9869 39.2105 27.0837 39.1396 27.2614C39.008 27.5944 38.6885 27.8284 38.3094 27.8284C37.9303 27.8284 37.5984 27.5933 37.4645 27.2581C37.3936 27.0826 37.2013 26.9869 37.0179 27.0364C36.6151 27.1467 36.2349 27.3042 35.8816 27.5067C35.7174 27.6001 35.6488 27.8037 35.723 27.9781C35.8659 28.3122 35.804 28.7104 35.5228 28.9692C35.2539 29.2381 34.8624 29.3078 34.5328 29.1627C34.355 29.0851 34.1491 29.1571 34.0535 29.3258C33.8555 29.6791 33.6991 30.0616 33.5911 30.4621C33.5416 30.6466 33.6384 30.8389 33.8161 30.9087C34.1503 31.0403 34.3831 31.3598 34.3831 31.7401C34.3831 32.1203 34.148 32.4511 33.8128 32.5849C33.6373 32.6558 33.5416 32.8482 33.5911 33.0316C33.7014 33.4343 33.8589 33.8134 34.0603 34.1667C34.1548 34.3309 34.3584 34.3996 34.5328 34.3242C34.8635 34.1824 35.2539 34.2421 35.5239 34.5121C35.8051 34.7821 35.867 35.1837 35.723 35.5189C35.6488 35.6922 35.7174 35.8958 35.8816 35.9892C36.236 36.1917 36.6151 36.3492 37.0179 36.4594C37.2013 36.5089 37.3936 36.4144 37.4645 36.2378C37.5995 35.9026 37.928 35.6663 38.3094 35.6663C38.6908 35.6663 39.0091 35.9003 39.1396 36.2333C39.2094 36.4111 39.4029 36.5089 39.5874 36.4583C39.989 36.3492 40.3704 36.1939 40.7191 35.9937C40.8845 35.8992 40.9576 35.6956 40.8823 35.5201C40.7371 35.1848 40.799 34.7821 41.0803 34.5109C41.3503 34.2409 41.7406 34.1813 42.0714 34.3231C42.2458 34.3984 42.4494 34.3298 42.5439 34.1656C42.7464 33.8123 42.9039 33.4321 43.013 33.0304C43.0625 32.8471 42.968 32.6547 42.7914 32.5838ZM38.3026 34.8979C36.5634 34.8979 35.1526 33.4872 35.1526 31.7479C35.1526 30.0087 36.5634 28.5979 38.3026 28.5979C40.0419 28.5979 41.4526 30.0087 41.4526 31.7479C41.4526 33.4872 40.0419 34.8979 38.3026 34.8979Z" fill="url(#paint1_linear_1841_18975)"/>
</g>
<path fill-rule="evenodd" clip-rule="evenodd" d="M38.3112 30.7188C38.022 30.7188 37.7622 30.8335 37.5743 31.0214C37.401 31.2092 37.2852 31.4691 37.2852 31.7436C37.2852 32.0327 37.3864 32.2926 37.5743 32.4805C37.7622 32.6684 38.022 32.7696 38.3112 32.7696C38.6003 32.7696 38.8455 32.6549 39.0334 32.4805C39.2213 32.2926 39.336 32.0327 39.336 31.7436C39.336 31.4545 39.2213 31.2092 39.0334 31.0214C38.8455 30.8335 38.5857 30.7188 38.3112 30.7188Z" fill="url(#paint2_linear_1841_18975)"/>
</g>
<path d="M21.7617 24.5625V30.1875C21.7617 30.498 21.5097 30.75 21.1992 30.75C20.8887 30.75 20.6367 30.498 20.6367 30.1875V24.5625C20.6367 24.252 20.8887 24 21.1992 24C21.5097 24 21.7617 24.252 21.7617 24.5625Z" fill="url(#paint3_linear_1841_18975)"/>
<rect x="0.5" y="0.5" width="63" height="63" rx="11.5" stroke="url(#paint4_linear_1841_18975)" stroke-opacity="0.05"/>
<defs>
<linearGradient id="paint0_linear_1841_18975" x1="14.4085" y1="18" x2="54.5615" y2="34.634" gradientUnits="userSpaceOnUse">
<stop stop-color="#1C1C1C"/>
<stop offset="1" stop-color="#242424"/>
</linearGradient>
<linearGradient id="paint1_linear_1841_18975" x1="35.2202" y1="28.3616" x2="41.0414" y2="36.4769" gradientUnits="userSpaceOnUse">
<stop stop-color="#8247E5"/>
<stop offset="1" stop-color="#7F45FF"/>
</linearGradient>
<linearGradient id="paint2_linear_1841_18975" x1="37.6415" y1="31.0092" x2="38.905" y2="32.7705" gradientUnits="userSpaceOnUse">
<stop stop-color="#8247E5"/>
<stop offset="1" stop-color="#7F45FF"/>
</linearGradient>
<linearGradient id="paint3_linear_1841_18975" x1="20.8322" y1="24.9559" x2="22.7677" y2="25.4056" gradientUnits="userSpaceOnUse">
<stop stop-color="#8247E5"/>
<stop offset="1" stop-color="#7F45FF"/>
</linearGradient>
<linearGradient id="paint4_linear_1841_18975" x1="2.79106" y1="-4.17731e-06" x2="78.3914" y2="27.8651" gradientUnits="userSpaceOnUse">
<stop stop-color="#8247E5"/>
<stop offset="1" stop-color="#3E1C8D"/>
</linearGradient>
<clipPath id="clip0_1841_18975">
<rect x="33.5781" y="27.0234" width="9.45" height="9.45" rx="1" fill="white"/>
</clipPath>
<clipPath id="clip1_1841_18975">
<rect width="9.44888" height="9.44888" fill="white" transform="translate(33.5781 27.0234)"/>
</clipPath>
</defs>
</svg>
