<svg width="20" height="20" viewBox="0 0 20 20" fill="none" xmlns="http://www.w3.org/2000/svg">
<path d="M11.1624 20C5.74399 19.9238 1.51241 16.594 0.330829 11.9923C-0.856013 7.36421 1.2203 2.48913 5.43872 0.144886C5.48872 0.115977 5.54136 0.0923247 5.59662 0.0713001C6.42293 -0.249325 7.28346 0.568007 6.96504 1.39322L6.95978 1.40636C5.58346 4.86491 6.26767 8.57312 8.81767 11.1355C11.3677 13.6979 15.0993 14.4101 18.5466 13.0592C18.6019 13.0382 18.6598 13.0198 18.7177 13.0041C19.5308 12.7991 20.2387 13.6427 19.9229 14.418C19.8966 14.4837 19.865 14.5494 19.8282 14.6098C17.7308 18.1236 14.5887 19.8817 11.165 19.9974L11.1624 20Z" fill="#1C1C1C"/>
</svg>
