<svg width="20" height="20" viewBox="0 0 20 20" fill="none" xmlns="http://www.w3.org/2000/svg">
<path d="M19.9984 9.93398C19.9651 9.29414 19.4521 8.7832 18.8106 8.75H16.1763C16.0141 7.9668 15.7021 7.22188 15.2566 6.55664L17.1227 4.69648C17.604 4.2 17.5899 3.40859 17.0918 2.9293C16.6058 2.46133 15.8354 2.46133 15.3494 2.9293L13.4868 4.78906C12.8194 4.34531 12.0721 4.03398 11.2864 3.87266V1.25C11.2864 0.559766 10.7248 0 10.0323 0C9.33985 0 8.77828 0.559766 8.77828 1.25V3.87578C7.99254 4.0375 7.24521 4.34844 6.57783 4.79258L4.71166 2.9293C4.21357 2.44961 3.41961 2.46328 2.93876 2.95977C2.46928 3.44414 2.46928 4.21211 2.93876 4.69648L4.80454 6.55664C4.35935 7.22188 4.04702 7.9668 3.88517 8.75H1.25404C0.561575 8.75 0 9.30977 0 10C0 10.6902 0.561575 11.25 1.25404 11.25H3.88831C4.05055 12.0332 4.36249 12.7781 4.80807 13.4434L2.93876 15.3035C2.45753 15.8 2.47124 16.5914 2.96933 17.0707C3.45527 17.5387 4.22572 17.5387 4.71166 17.0707L6.57783 15.2109C7.24521 15.6547 7.99254 15.966 8.77828 16.1273V18.75C8.77828 19.4402 9.33985 20 10.0323 20C10.7248 20 11.2864 19.4402 11.2864 18.75V16.1242C12.0721 15.9625 12.8194 15.6516 13.4868 15.2074L15.353 17.0676C15.8511 17.5473 16.645 17.5332 17.1259 17.0367C17.5953 16.5523 17.5953 15.7844 17.1259 15.3L15.2601 13.4398C15.7053 12.7746 16.0176 12.0301 16.1795 11.2465H18.8106C19.5023 11.2109 20.0341 10.6234 19.9984 9.93398Z" fill="#F0F0F0"/>
</svg>
