<svg width="36" height="36" viewBox="0 0 36 36" fill="none" xmlns="http://www.w3.org/2000/svg">
<path d="M36 6.83745C34.6458 7.42808 33.2136 7.82061 31.7475 8.00295C33.2925 7.08636 34.4477 5.63497 34.9943 3.9237C33.5475 4.78171 31.9647 5.38592 30.3142 5.7102C29.3023 4.6297 27.9888 3.87852 26.5444 3.55424C25.0999 3.22996 23.5914 3.34757 22.2146 3.89181C20.8379 4.43604 19.6567 5.38173 18.8245 6.60601C17.9922 7.83029 17.5474 9.27657 17.5477 10.757C17.5477 11.342 17.5972 11.9045 17.7188 12.44C14.7827 12.296 11.9101 11.534 9.28868 10.2037C6.6673 8.87345 4.35621 7.00489 2.5065 4.7202C1.55884 6.34438 1.26587 8.2687 1.68724 10.1013C2.1086 11.9339 3.21263 13.537 4.7745 14.5842C3.6062 14.5529 2.46257 14.2411 1.44 13.6752V13.7562C1.44196 15.4604 2.031 17.1119 3.10796 18.4327C4.18493 19.7535 5.68406 20.663 7.353 21.008C6.72162 21.1744 6.07092 21.2561 5.418 21.251C4.94908 21.2593 4.48062 21.217 4.02075 21.125C4.49762 22.5898 5.41685 23.8707 6.65189 24.7915C7.88692 25.7122 9.37701 26.2274 10.917 26.2662C8.30461 28.3093 5.08269 29.4176 1.76625 29.414C1.161 29.414 0.5805 29.387 0 29.3127C3.37473 31.4874 7.30727 32.6378 11.322 32.6247C24.903 32.6247 32.328 21.3747 32.328 11.6232C32.328 11.297 32.3167 10.982 32.301 10.6692C33.7567 9.62742 35.0102 8.32893 36 6.83745Z" fill="#1C1C1C"/>
</svg>
