<svg width="20" height="20" viewBox="0 0 20 20" fill="none" xmlns="http://www.w3.org/2000/svg">
<path d="M20 3.79907C19.2477 4.1272 18.452 4.34527 17.6375 4.44657C18.4958 3.93736 19.1376 3.13103 19.4412 2.18032C18.6375 2.65699 17.7582 2.99267 16.8412 3.17282C16.2791 2.57255 15.5493 2.15522 14.7469 1.97507C13.9444 1.79491 13.1063 1.86025 12.3415 2.1626C11.5766 2.46495 10.9204 2.99034 10.458 3.67049C9.99566 4.35065 9.74853 5.15414 9.74875 5.97657C9.74875 6.30157 9.77625 6.61407 9.84375 6.91157C8.2126 6.8316 6.6167 6.40826 5.16038 5.66922C3.70406 4.93018 2.42012 3.89209 1.3925 2.62282C0.866024 3.52515 0.703261 4.59421 0.937354 5.61233C1.17145 6.63045 1.78479 7.52106 2.6525 8.10282C2.00345 8.08542 1.36809 7.91222 0.8 7.59782V7.64282C0.801087 8.58961 1.12833 9.50712 1.72665 10.2409C2.32496 10.9747 3.15781 11.4799 4.085 11.6716C3.73423 11.764 3.37273 11.8094 3.01 11.8066C2.74949 11.8112 2.48923 11.7877 2.23375 11.7366C2.49868 12.5504 3.00936 13.262 3.69549 13.7735C4.38162 14.285 5.20945 14.5713 6.065 14.5928C4.61367 15.7279 2.82372 16.3436 0.98125 16.3416C0.645 16.3416 0.3225 16.3266 0 16.2853C1.87485 17.4935 4.05959 18.1326 6.29 18.1253C13.835 18.1253 17.96 11.8753 17.96 6.45782C17.96 6.27657 17.9538 6.10157 17.945 5.92782C18.7537 5.34906 19.4501 4.62767 20 3.79907Z" fill="#A5A5A5"/>
</svg>
