<svg width="36" height="36" viewBox="0 0 36 36" fill="none" xmlns="http://www.w3.org/2000/svg">
<path d="M36 6.83794C34.6458 7.42857 33.2136 7.8211 31.7475 8.00344C33.2925 7.08685 34.4477 5.63546 34.9943 3.92419C33.5475 4.7822 31.9647 5.38641 30.3142 5.71069C29.3023 4.63019 27.9888 3.87901 26.5444 3.55473C25.0999 3.23045 23.5914 3.34806 22.2146 3.89229C20.8379 4.43652 19.6567 5.38221 18.8245 6.6065C17.9922 7.83078 17.5474 9.27706 17.5477 10.7574C17.5477 11.3424 17.5972 11.9049 17.7188 12.4404C14.7827 12.2965 11.9101 11.5345 9.28868 10.2042C6.6673 8.87394 4.35621 7.00538 2.5065 4.72069C1.55884 6.34487 1.26587 8.26919 1.68724 10.1018C2.1086 11.9344 3.21263 13.5375 4.7745 14.5847C3.6062 14.5534 2.46257 14.2416 1.44 13.6757V13.7567C1.44196 15.4609 2.031 17.1124 3.10796 18.4332C4.18493 19.754 5.68406 20.6635 7.353 21.0084C6.72162 21.1748 6.07092 21.2566 5.418 21.2514C4.94908 21.2598 4.48062 21.2175 4.02075 21.1254C4.49762 22.5902 5.41685 23.8712 6.65189 24.7919C7.88692 25.7127 9.37701 26.2279 10.917 26.2667C8.30461 28.3098 5.08269 29.4181 1.76625 29.4144C1.161 29.4144 0.5805 29.3874 0 29.3132C3.37473 31.4879 7.30727 32.6383 11.322 32.6252C24.903 32.6252 32.328 21.3752 32.328 11.6237C32.328 11.2974 32.3167 10.9824 32.301 10.6697C33.7567 9.62791 35.0102 8.32942 36 6.83794Z" fill="#F0F0F0"/>
</svg>
