<svg width="64" height="64" viewBox="0 0 64 64" fill="none" xmlns="http://www.w3.org/2000/svg">
<rect width="64" height="64" rx="16" fill="#282828"/>
<path d="M43.6486 25.2614C42.986 24.8216 42.5 24.1219 42.5 23.3267V22.5C42.5 16.701 37.799 12 32 12C26.201 12 21.5 16.701 21.5 22.5V23.3267C21.5 24.1219 21.014 24.8216 20.3514 25.2614C18.2849 26.6329 17.0034 28.9632 17 31.5V40.5C17.0049 44.64 20.3599 47.9951 24.5 48H39.4999C43.64 47.9951 46.995 44.64 47 40.5V31.5C46.9967 28.9632 45.7151 26.6329 43.6486 25.2614ZM39.5 22.5C39.5 23.3285 38.8284 24 38 24H25.9999C25.1715 24 24.5 23.3285 24.5 22.5V22.5C24.5 18.3579 27.8578 15 32 15C36.1422 15 39.5 18.3579 39.5 22.5V22.5Z" fill="url(#paint0_linear_1733_14833)"/>
<path d="M29.2152 38.9645L28.5084 39.8731C27.2691 39.2266 26.6481 38.0969 26.6445 36.4205C26.6445 33.5751 28.4378 32.3134 32.0056 32.3134C32.7504 32.3037 33.4941 32.3755 34.2233 32.5274L33.4736 33.4904C32.9872 33.4235 32.4966 33.3922 32.0056 33.3968C29.1776 33.3968 27.9366 34.1823 27.9366 36.4205C27.9366 37.6983 28.3422 38.5062 29.2152 38.9645Z" fill="url(#paint1_linear_1733_14833)"/>
<path d="M34.7978 33.8855L35.5045 32.9768C36.7412 33.6242 37.3621 34.746 37.3666 36.4206C37.3666 39.2668 35.5724 40.5402 32.0055 40.5402C31.2606 40.5501 30.5169 40.478 29.7878 40.3253L30.5375 39.3623C31.0239 39.4296 31.5145 39.4612 32.0055 39.4568C34.8326 39.4568 36.0737 38.6596 36.0737 36.4206C36.0737 35.1437 35.6689 34.3402 34.7978 33.8855Z" fill="url(#paint2_linear_1733_14833)"/>
<defs>
<linearGradient id="paint0_linear_1733_14833" x1="17" y1="12" x2="51.6477" y2="42.7658" gradientUnits="userSpaceOnUse">
<stop stop-color="#F0F0F0"/>
<stop offset="1" stop-color="#999999"/>
</linearGradient>
<linearGradient id="paint1_linear_1733_14833" x1="27.1121" y1="32.3125" x2="38.8019" y2="37.9268" gradientUnits="userSpaceOnUse">
<stop stop-color="#8247E5"/>
<stop offset="1" stop-color="#3E1C8D"/>
</linearGradient>
<linearGradient id="paint2_linear_1733_14833" x1="27.1121" y1="32.3125" x2="38.8019" y2="37.9268" gradientUnits="userSpaceOnUse">
<stop stop-color="#8247E5"/>
<stop offset="1" stop-color="#3E1C8D"/>
</linearGradient>
</defs>
</svg>
