<svg width="756" height="146" viewBox="0 0 756 146" fill="none" xmlns="http://www.w3.org/2000/svg">
<g style="mix-blend-mode:color-dodge">
<path d="M378 -424L378.199 70.515L455.756 -417.887L378.572 70.5895L531.573 -399.672L378.944 70.7138L603.638 -369.827L379.292 70.8877L670.137 -329.073L379.615 71.1114L729.429 -278.429L379.889 71.3847L780.073 -219.137L380.112 71.7078L820.827 -152.638L380.286 72.0557L850.672 -80.573L380.41 72.4284L868.887 -4.75565L380.485 72.8012L875 73L380.485 73.1988L868.887 150.756L380.41 73.5715L850.672 226.573L380.286 73.9443L820.827 298.638L380.112 74.2922L780.073 365.137L379.889 74.6152L729.429 424.429L379.615 74.8886L670.137 475.073L379.292 75.1122L603.638 515.827L378.944 75.2862L531.573 545.672L378.572 75.4104L455.756 563.887L378.199 75.485L378 570L377.801 75.485L300.244 563.887L377.428 75.4104L224.427 545.672L377.056 75.2862L152.362 515.827L376.708 75.1122L85.8634 475.073L376.385 74.8886L26.5713 424.429L376.111 74.6152L-24.073 365.137L375.888 74.2922L-64.827 298.638L375.714 73.9443L-94.6719 226.573L375.59 73.5715L-112.887 150.756L375.515 73.1988L-119 73L375.515 72.8012L-112.887 -4.75565L375.59 72.4284L-94.6719 -80.573L375.714 72.0557L-64.827 -152.638L375.888 71.7078L-24.073 -219.137L376.111 71.3847L26.5713 -278.429L376.385 71.1114L85.8634 -329.073L376.708 70.8877L152.362 -369.827L377.056 70.7138L224.427 -399.672L377.428 70.5895L300.244 -417.887L377.801 70.515L378 -424Z" fill="url(#paint0_linear_1841_18787)"/>
</g>
<defs>
<linearGradient id="paint0_linear_1841_18787" x1="-75.6513" y1="-424" x2="1098.52" y2="8.77936" gradientUnits="userSpaceOnUse">
<stop stop-color="#8247E5"/>
<stop offset="1" stop-color="#3E1C8D"/>
</linearGradient>
</defs>
</svg>
