<svg width="176" height="40" viewBox="0 0 176 40" fill="none" xmlns="http://www.w3.org/2000/svg">
<path d="M11.9292 30.1191C13.393 29.9258 14.4978 29.4355 15.2435 28.6484C16.003 27.8474 16.3828 26.8048 16.3828 25.5205C16.3828 24.9957 16.2861 24.54 16.0928 24.1533C15.9133 23.7528 15.6509 23.4007 15.3056 23.0968C14.9742 22.793 14.5806 22.5306 14.1249 22.3097C13.6692 22.0887 13.172 21.8816 12.6335 21.6882L11.9292 30.1191ZM10.6034 8.22372C9.83008 8.32039 9.17411 8.4861 8.63553 8.72087C8.09695 8.94183 7.65504 9.21802 7.30979 9.54946C6.96455 9.88089 6.70907 10.2538 6.54335 10.668C6.39144 11.0823 6.31549 11.5174 6.31549 11.9731C6.31549 12.4978 6.40525 12.9605 6.58478 13.361C6.77812 13.7476 7.0336 14.0998 7.35122 14.4174C7.68266 14.7212 8.06933 14.9974 8.51124 15.246C8.95315 15.4808 9.4365 15.7017 9.96127 15.9089L10.6034 8.22372ZM13.027 16.9032C14.0213 17.207 15.0087 17.5453 15.9892 17.9182C16.9697 18.2772 17.8466 18.7468 18.62 19.3268C19.4072 19.9068 20.0424 20.6318 20.5257 21.5018C21.0091 22.358 21.2508 23.4352 21.2508 24.7333C21.2508 26.0176 21.0367 27.226 20.6086 28.3584C20.1805 29.477 19.5522 30.4713 18.7236 31.3413C17.895 32.1975 16.88 32.9018 15.6785 33.4542C14.4771 33.9928 13.103 34.3104 11.5563 34.407L11.3077 37.4521C11.2939 37.7697 11.1558 38.0597 10.8934 38.3221C10.6449 38.5983 10.3272 38.7364 9.94055 38.7364H8.05552L8.42838 34.3035C6.81264 34.0825 5.29357 33.6406 3.87116 32.9777C2.44875 32.3149 1.2404 31.4932 0.246094 30.5127L1.82041 28.1719C1.95851 27.9648 2.13803 27.7991 2.35899 27.6748C2.59375 27.5367 2.84233 27.4676 3.10472 27.4676C3.40853 27.4676 3.73306 27.5781 4.07831 27.7991C4.42355 28.0062 4.81713 28.2548 5.25904 28.5448C5.70095 28.821 6.20501 29.1041 6.77121 29.3941C7.33741 29.6841 8.00718 29.8982 8.78053 30.0363L9.54698 20.7768C8.56648 20.5006 7.59289 20.1761 6.62621 19.8032C5.67333 19.4303 4.81022 18.9401 4.03688 18.3325C3.27734 17.711 2.6628 16.9308 2.19327 15.9917C1.72374 15.0527 1.48897 13.8788 1.48897 12.4702C1.48897 11.4207 1.69612 10.3988 2.11041 9.40445C2.52471 8.39634 3.13234 7.49871 3.9333 6.71155C4.74808 5.92439 5.74238 5.27533 6.91621 4.76437C8.09004 4.25341 9.4365 3.9634 10.9556 3.89435L11.1834 1.28431C11.2111 0.952873 11.3491 0.655964 11.5977 0.393579C11.8463 0.131192 12.1708 0 12.5713 0H14.4563L14.1249 4.06007C15.5888 4.29484 16.8523 4.71604 17.9157 5.32367C18.979 5.91749 19.8974 6.58726 20.6707 7.33299L19.4279 9.21802C19.2483 9.49422 19.0619 9.70136 18.8686 9.83946C18.6752 9.97756 18.4405 10.0466 18.1643 10.0466C17.9571 10.0466 17.7085 9.98446 17.4185 9.86018C17.1285 9.72208 16.804 9.56326 16.445 9.38374C16.0859 9.1904 15.6785 8.99707 15.2228 8.80373C14.7809 8.61039 14.2906 8.45158 13.7521 8.32729L13.027 16.9032Z" fill="url(#paint0_linear_1647_14928)"/>
<path d="M43.2115 29.3527C43.7639 29.3527 44.1989 29.5115 44.5165 29.8291C44.848 30.1329 45.0137 30.5403 45.0137 31.0513V34.117H24.4648V32.4184C24.4648 32.0732 24.5338 31.7141 24.6719 31.3413C24.8238 30.9546 25.0586 30.6094 25.3762 30.3055L34.4699 21.1911C35.2295 20.4177 35.9062 19.6789 36.5 18.9746C37.1076 18.2703 37.6117 17.5729 38.0121 16.8824C38.4126 16.192 38.7164 15.4946 38.9236 14.7903C39.1446 14.0722 39.255 13.3195 39.255 12.5324C39.255 11.8143 39.1515 11.1859 38.9443 10.6473C38.7372 10.0949 38.4403 9.63231 38.0536 9.25945C37.6807 8.88659 37.225 8.61039 36.6864 8.43087C36.1616 8.23753 35.5678 8.14086 34.9049 8.14086C34.2973 8.14086 33.7311 8.23062 33.2063 8.41015C32.6954 8.57587 32.2397 8.81754 31.8392 9.13516C31.4387 9.43898 31.1004 9.79803 30.8242 10.2123C30.548 10.6266 30.3408 11.0823 30.2027 11.5795C29.968 12.2147 29.6641 12.6359 29.2913 12.8431C28.9184 13.0502 28.3798 13.0986 27.6755 12.9881L24.9826 12.5117C25.1898 11.0754 25.5903 9.81875 26.1841 8.74159C26.7779 7.65061 27.5167 6.74607 28.4005 6.02797C29.2982 5.29605 30.3201 4.75056 31.4663 4.39151C32.6263 4.01864 33.8692 3.83221 35.195 3.83221C36.5759 3.83221 37.8395 4.03936 38.9857 4.45365C40.1319 4.85413 41.1124 5.42724 41.9272 6.17297C42.742 6.91869 43.3772 7.81633 43.833 8.86587C44.2887 9.91542 44.5165 11.0823 44.5165 12.3666C44.5165 13.4714 44.3508 14.4934 44.0194 15.4324C43.7018 16.3715 43.2668 17.2691 42.7144 18.1253C42.1758 18.9815 41.5405 19.8101 40.8086 20.6111C40.0767 21.4121 39.3103 22.2268 38.5093 23.0554L31.7563 29.9534C32.4054 29.7601 33.0475 29.6151 33.6828 29.5184C34.3318 29.4079 34.9464 29.3527 35.5264 29.3527H43.2115Z" fill="url(#paint1_linear_1647_14928)"/>
<path d="M55.3328 15.0388C55.9957 14.9007 56.631 14.8041 57.2386 14.7488C57.8462 14.6798 58.4331 14.6453 58.9993 14.6453C60.5736 14.6453 61.9615 14.88 63.163 15.3496C64.3644 15.8191 65.3725 16.4682 66.1873 17.2967C67.0021 18.1253 67.6166 19.0989 68.0309 20.2175C68.4452 21.3223 68.6524 22.5168 68.6524 23.8011C68.6524 25.3893 68.3693 26.8393 67.8031 28.1512C67.2507 29.4631 66.4773 30.5886 65.483 31.5277C64.4887 32.453 63.308 33.1711 61.9408 33.682C60.5875 34.193 59.1098 34.4485 57.5079 34.4485C56.5688 34.4485 55.6781 34.3518 54.8357 34.1585C53.9933 33.9651 53.1992 33.7097 52.4535 33.392C51.7216 33.0606 51.038 32.6877 50.4028 32.2734C49.7813 31.8453 49.222 31.3965 48.7249 30.927L50.2992 28.7519C50.6306 28.2824 51.0656 28.0476 51.6042 28.0476C51.9494 28.0476 52.3016 28.1581 52.6607 28.3791C53.0197 28.6 53.4271 28.8417 53.8828 29.1041C54.3523 29.3665 54.8978 29.6081 55.5193 29.8291C56.1545 30.0501 56.9141 30.1605 57.7979 30.1605C58.7369 30.1605 59.5655 30.0086 60.2836 29.7048C61.0018 29.401 61.5956 28.9798 62.0651 28.4412C62.5484 27.8888 62.9075 27.2398 63.1423 26.494C63.3908 25.7345 63.5151 24.9128 63.5151 24.029C63.5151 22.3994 63.0387 21.129 62.0858 20.2175C61.1468 19.2922 59.752 18.8296 57.9015 18.8296C56.479 18.8296 55.0221 19.092 53.5307 19.6168L50.3406 18.7053L52.8264 4.16364H67.6166V6.33868C67.6166 7.0706 67.3888 7.66442 66.933 8.12014C66.4773 8.57587 65.704 8.80373 64.613 8.80373H56.3893L55.3328 15.0388Z" fill="url(#paint2_linear_1647_14928)"/>
<path d="M93.9482 19.1403C93.9482 21.7504 93.6651 24.0221 93.0989 25.9555C92.5465 27.875 91.7732 29.4631 90.7788 30.7198C89.7984 31.9765 88.6314 32.9156 87.2781 33.537C85.9385 34.1447 84.4885 34.4485 82.928 34.4485C81.3675 34.4485 79.9175 34.1447 78.5779 33.537C77.2522 32.9156 76.0991 31.9765 75.1186 30.7198C74.1381 29.4631 73.3716 27.875 72.8192 25.9555C72.2669 24.0221 71.9907 21.7504 71.9907 19.1403C71.9907 16.5165 72.2669 14.2448 72.8192 12.3252C73.3716 10.4057 74.1381 8.81754 75.1186 7.56085C76.0991 6.30416 77.2522 5.372 78.5779 4.76437C79.9175 4.14293 81.3675 3.83221 82.928 3.83221C84.4885 3.83221 85.9385 4.14293 87.2781 4.76437C88.6314 5.372 89.7984 6.30416 90.7788 7.56085C91.7732 8.81754 92.5465 10.4057 93.0989 12.3252C93.6651 14.2448 93.9482 16.5165 93.9482 19.1403ZM88.666 19.1403C88.666 16.9722 88.5071 15.1769 88.1895 13.7545C87.8719 12.3321 87.4438 11.1997 86.9052 10.3573C86.3804 9.51493 85.7728 8.92802 85.0823 8.59658C84.3918 8.25134 83.6737 8.07871 82.928 8.07871C82.1961 8.07871 81.4849 8.25134 80.7944 8.59658C80.1177 8.92802 79.517 9.51493 78.9922 10.3573C78.4674 11.1997 78.0462 12.3321 77.7286 13.7545C77.4248 15.1769 77.2729 16.9722 77.2729 19.1403C77.2729 21.3085 77.4248 23.1037 77.7286 24.5262C78.0462 25.9486 78.4674 27.081 78.9922 27.9234C79.517 28.7658 80.1177 29.3596 80.7944 29.7048C81.4849 30.0363 82.1961 30.202 82.928 30.202C83.6737 30.202 84.3918 30.0363 85.0823 29.7048C85.7728 29.3596 86.3804 28.7658 86.9052 27.9234C87.4438 27.081 87.8719 25.9486 88.1895 24.5262C88.5071 23.1037 88.666 21.3085 88.666 19.1403Z" fill="url(#paint3_linear_1647_14928)"/>
<path d="M97.4315 39.1921C97.1829 38.985 97.0586 38.7295 97.0586 38.4257C97.0586 38.3152 97.0932 38.1909 97.1622 38.0528C97.2451 37.9147 97.3417 37.7904 97.4522 37.68C97.6041 37.5142 97.7906 37.3071 98.0115 37.0585C98.2325 36.8238 98.4534 36.5476 98.6744 36.2299C98.8953 35.9261 99.0956 35.5878 99.2751 35.2149C99.4684 34.8559 99.6134 34.4692 99.7101 34.0549C99.2682 34.0549 98.8677 33.9789 98.5086 33.827C98.1496 33.6613 97.8389 33.4404 97.5765 33.1642C97.3279 32.888 97.1277 32.5634 96.9758 32.1906C96.8377 31.8177 96.7686 31.4103 96.7686 30.9684C96.7686 30.5817 96.8377 30.2227 96.9758 29.8913C97.1277 29.546 97.3348 29.2491 97.5972 29.0005C97.8596 28.7381 98.1772 28.5379 98.5501 28.3998C98.9229 28.2479 99.3303 28.1719 99.7722 28.1719C100.297 28.1719 100.753 28.2686 101.139 28.4619C101.54 28.6415 101.864 28.8969 102.113 29.2284C102.375 29.546 102.569 29.9189 102.693 30.347C102.831 30.7613 102.9 31.2032 102.9 31.6727C102.9 32.3356 102.797 33.033 102.589 33.7649C102.396 34.4968 102.106 35.2287 101.719 35.9606C101.333 36.6926 100.849 37.4038 100.269 38.0943C99.7032 38.7847 99.0541 39.42 98.3222 40L97.4315 39.1921Z" fill="url(#paint4_linear_1647_14928)"/>
<path d="M127.69 19.1403C127.69 21.7504 127.407 24.0221 126.841 25.9555C126.289 27.875 125.515 29.4631 124.521 30.7198C123.541 31.9765 122.374 32.9156 121.02 33.537C119.681 34.1447 118.231 34.4485 116.67 34.4485C115.11 34.4485 113.66 34.1447 112.32 33.537C110.994 32.9156 109.841 31.9765 108.861 30.7198C107.88 29.4631 107.114 27.875 106.561 25.9555C106.009 24.0221 105.733 21.7504 105.733 19.1403C105.733 16.5165 106.009 14.2448 106.561 12.3252C107.114 10.4057 107.88 8.81754 108.861 7.56085C109.841 6.30416 110.994 5.372 112.32 4.76437C113.66 4.14293 115.11 3.83221 116.67 3.83221C118.231 3.83221 119.681 4.14293 121.02 4.76437C122.374 5.372 123.541 6.30416 124.521 7.56085C125.515 8.81754 126.289 10.4057 126.841 12.3252C127.407 14.2448 127.69 16.5165 127.69 19.1403ZM122.408 19.1403C122.408 16.9722 122.249 15.1769 121.932 13.7545C121.614 12.3321 121.186 11.1997 120.647 10.3573C120.123 9.51493 119.515 8.92802 118.825 8.59658C118.134 8.25134 117.416 8.07871 116.67 8.07871C115.938 8.07871 115.227 8.25134 114.537 8.59658C113.86 8.92802 113.259 9.51493 112.734 10.3573C112.21 11.1997 111.788 12.3321 111.471 13.7545C111.167 15.1769 111.015 16.9722 111.015 19.1403C111.015 21.3085 111.167 23.1037 111.471 24.5262C111.788 25.9486 112.21 27.081 112.734 27.9234C113.259 28.7658 113.86 29.3596 114.537 29.7048C115.227 30.0363 115.938 30.202 116.67 30.202C117.416 30.202 118.134 30.0363 118.825 29.7048C119.515 29.3596 120.123 28.7658 120.647 27.9234C121.186 27.081 121.614 25.9486 121.932 24.5262C122.249 23.1037 122.408 21.3085 122.408 19.1403Z" fill="url(#paint5_linear_1647_14928)"/>
<path d="M151.723 19.1403C151.723 21.7504 151.44 24.0221 150.873 25.9555C150.321 27.875 149.548 29.4631 148.553 30.7198C147.573 31.9765 146.406 32.9156 145.053 33.537C143.713 34.1447 142.263 34.4485 140.702 34.4485C139.142 34.4485 137.692 34.1447 136.352 33.537C135.027 32.9156 133.874 31.9765 132.893 30.7198C131.913 29.4631 131.146 27.875 130.594 25.9555C130.041 24.0221 129.765 21.7504 129.765 19.1403C129.765 16.5165 130.041 14.2448 130.594 12.3252C131.146 10.4057 131.913 8.81754 132.893 7.56085C133.874 6.30416 135.027 5.372 136.352 4.76437C137.692 4.14293 139.142 3.83221 140.702 3.83221C142.263 3.83221 143.713 4.14293 145.053 4.76437C146.406 5.372 147.573 6.30416 148.553 7.56085C149.548 8.81754 150.321 10.4057 150.873 12.3252C151.44 14.2448 151.723 16.5165 151.723 19.1403ZM146.44 19.1403C146.44 16.9722 146.282 15.1769 145.964 13.7545C145.646 12.3321 145.218 11.1997 144.68 10.3573C144.155 9.51493 143.547 8.92802 142.857 8.59658C142.166 8.25134 141.448 8.07871 140.702 8.07871C139.971 8.07871 139.259 8.25134 138.569 8.59658C137.892 8.92802 137.291 9.51493 136.767 10.3573C136.242 11.1997 135.821 12.3321 135.503 13.7545C135.199 15.1769 135.047 16.9722 135.047 19.1403C135.047 21.3085 135.199 23.1037 135.503 24.5262C135.821 25.9486 136.242 27.081 136.767 27.9234C137.291 28.7658 137.892 29.3596 138.569 29.7048C139.259 30.0363 139.971 30.202 140.702 30.202C141.448 30.202 142.166 30.0363 142.857 29.7048C143.547 29.3596 144.155 28.7658 144.68 27.9234C145.218 27.081 145.646 25.9486 145.964 24.5262C146.282 23.1037 146.44 21.3085 146.44 19.1403Z" fill="url(#paint6_linear_1647_14928)"/>
<path d="M175.755 19.1403C175.755 21.7504 175.472 24.0221 174.906 25.9555C174.353 27.875 173.58 29.4631 172.586 30.7198C171.605 31.9765 170.438 32.9156 169.085 33.537C167.745 34.1447 166.295 34.4485 164.735 34.4485C163.174 34.4485 161.724 34.1447 160.385 33.537C159.059 32.9156 157.906 31.9765 156.925 30.7198C155.945 29.4631 155.178 27.875 154.626 25.9555C154.074 24.0221 153.797 21.7504 153.797 19.1403C153.797 16.5165 154.074 14.2448 154.626 12.3252C155.178 10.4057 155.945 8.81754 156.925 7.56085C157.906 6.30416 159.059 5.372 160.385 4.76437C161.724 4.14293 163.174 3.83221 164.735 3.83221C166.295 3.83221 167.745 4.14293 169.085 4.76437C170.438 5.372 171.605 6.30416 172.586 7.56085C173.58 8.81754 174.353 10.4057 174.906 12.3252C175.472 14.2448 175.755 16.5165 175.755 19.1403ZM170.473 19.1403C170.473 16.9722 170.314 15.1769 169.996 13.7545C169.679 12.3321 169.251 11.1997 168.712 10.3573C168.187 9.51493 167.58 8.92802 166.889 8.59658C166.199 8.25134 165.48 8.07871 164.735 8.07871C164.003 8.07871 163.292 8.25134 162.601 8.59658C161.924 8.92802 161.324 9.51493 160.799 10.3573C160.274 11.1997 159.853 12.3321 159.535 13.7545C159.232 15.1769 159.08 16.9722 159.08 19.1403C159.08 21.3085 159.232 23.1037 159.535 24.5262C159.853 25.9486 160.274 27.081 160.799 27.9234C161.324 28.7658 161.924 29.3596 162.601 29.7048C163.292 30.0363 164.003 30.202 164.735 30.202C165.48 30.202 166.199 30.0363 166.889 29.7048C167.58 29.3596 168.187 28.7658 168.712 27.9234C169.251 27.081 169.679 25.9486 169.996 24.5262C170.314 23.1037 170.473 21.3085 170.473 19.1403Z" fill="url(#paint7_linear_1647_14928)"/>
<defs>
<linearGradient id="paint0_linear_1647_14928" x1="0.246094" y1="0" x2="16.1052" y2="74.147" gradientUnits="userSpaceOnUse">
<stop stop-color="#F0F0F0"/>
<stop offset="1" stop-color="#999999"/>
</linearGradient>
<linearGradient id="paint1_linear_1647_14928" x1="0.246094" y1="0" x2="16.1052" y2="74.147" gradientUnits="userSpaceOnUse">
<stop stop-color="#F0F0F0"/>
<stop offset="1" stop-color="#999999"/>
</linearGradient>
<linearGradient id="paint2_linear_1647_14928" x1="0.246094" y1="0" x2="16.1052" y2="74.147" gradientUnits="userSpaceOnUse">
<stop stop-color="#F0F0F0"/>
<stop offset="1" stop-color="#999999"/>
</linearGradient>
<linearGradient id="paint3_linear_1647_14928" x1="0.246094" y1="0" x2="16.1052" y2="74.147" gradientUnits="userSpaceOnUse">
<stop stop-color="#F0F0F0"/>
<stop offset="1" stop-color="#999999"/>
</linearGradient>
<linearGradient id="paint4_linear_1647_14928" x1="0.246094" y1="0" x2="16.1052" y2="74.147" gradientUnits="userSpaceOnUse">
<stop stop-color="#F0F0F0"/>
<stop offset="1" stop-color="#999999"/>
</linearGradient>
<linearGradient id="paint5_linear_1647_14928" x1="0.246094" y1="0" x2="16.1052" y2="74.147" gradientUnits="userSpaceOnUse">
<stop stop-color="#F0F0F0"/>
<stop offset="1" stop-color="#999999"/>
</linearGradient>
<linearGradient id="paint6_linear_1647_14928" x1="0.246094" y1="0" x2="16.1052" y2="74.147" gradientUnits="userSpaceOnUse">
<stop stop-color="#F0F0F0"/>
<stop offset="1" stop-color="#999999"/>
</linearGradient>
<linearGradient id="paint7_linear_1647_14928" x1="0.246094" y1="0" x2="16.1052" y2="74.147" gradientUnits="userSpaceOnUse">
<stop stop-color="#F0F0F0"/>
<stop offset="1" stop-color="#999999"/>
</linearGradient>
</defs>
</svg>
