<svg width="164" height="40" viewBox="0 0 164 40" fill="none" xmlns="http://www.w3.org/2000/svg">
<g clip-path="url(#clip0_1841_19020)">
<path fill-rule="evenodd" clip-rule="evenodd" d="M34.2214 6.17368L34.4268 7.45697C34.5808 8.63759 34.6578 9.81821 34.6321 11.0245C34.6321 13.6681 34.3241 16.286 33.7081 18.8525C32.8868 22.3174 31.4495 25.6283 29.4733 28.6055C27.189 31.9934 23.8782 35.3043 19.0787 38.0248L18.4884 38.3585L17.898 38.0248C13.0986 35.3556 9.78768 32.019 7.50344 28.6055C5.50151 25.6283 4.0899 22.3431 3.2686 18.8525C2.65262 16.286 2.34463 13.6681 2.34463 11.0245C2.34463 9.84388 2.39596 8.63759 2.54996 7.45697L2.72962 6.17368C2.75528 6.07102 2.75528 5.96836 2.72962 5.86569C2.70395 5.76303 2.67828 5.66037 2.60129 5.58337C2.54996 5.50637 2.47296 5.42938 2.39596 5.37805C2.31896 5.32672 2.2163 5.30105 2.1393 5.27538C2.03664 5.24972 1.93398 5.24972 1.83132 5.27538C1.72865 5.30105 1.62599 5.35238 1.54899 5.40371C1.472 5.45504 1.395 5.53204 1.34367 5.60904C1.29234 5.7117 1.26667 5.81436 1.241 5.91703L1.03568 7.20031C0.881685 8.45793 0.804688 9.74122 0.804688 11.0245C0.804688 13.7964 1.13834 16.5426 1.77998 19.2375C2.2163 21.0598 2.80661 22.8564 3.55092 24.576C4.29522 26.2956 5.19352 27.9382 6.24582 29.5038C8.65839 33.097 12.1489 36.6132 17.1794 39.3851L18.129 39.9241C18.2574 39.9754 18.3857 40.0011 18.514 40.0011C18.6424 40.0011 18.7707 39.9754 18.899 39.9241L19.8486 39.3851C24.8535 36.5875 28.3697 33.0713 30.7822 29.5038C32.8868 26.3726 34.4011 22.8821 35.2481 19.2375C35.8897 16.5426 36.1977 13.7964 36.1977 11.0245C36.1977 9.74122 36.1207 8.45793 35.9667 7.17465L35.7614 5.89136C35.7357 5.7887 35.71 5.68603 35.6587 5.58337C35.6074 5.50637 35.5304 5.42938 35.4534 5.37805C35.3764 5.32672 35.2737 5.27538 35.1711 5.24972C35.0684 5.22405 34.9657 5.22405 34.8631 5.24972C34.7604 5.27538 34.6577 5.30105 34.5551 5.35238C34.4781 5.40371 34.4011 5.48071 34.3498 5.55771C34.2984 5.6347 34.2471 5.73737 34.2214 5.84003V6.17368Z" fill="black"/>
<path fill-rule="evenodd" clip-rule="evenodd" d="M7.0417 5.29997L18.5399 1.6811L30.2692 5.37697C30.3718 5.40263 30.4745 5.40263 30.5772 5.40263C30.6798 5.40263 30.7825 5.37697 30.8851 5.32563C30.9878 5.2743 31.0648 5.22297 31.1418 5.12031C31.2188 5.04331 31.2701 4.94065 31.2701 4.83799C31.2958 4.73532 31.2958 4.63266 31.2958 4.53C31.2958 4.42733 31.2701 4.32467 31.2188 4.22201C31.1675 4.11935 31.1161 4.04235 31.0391 3.96535C30.9621 3.88835 30.8595 3.83702 30.7568 3.83702L18.7709 0.0384986C18.6169 -0.0128329 18.4629 -0.0128329 18.3089 0.0384986L6.60539 3.73436C6.50272 3.76003 6.42573 3.81136 6.32306 3.86269C6.24607 3.93969 6.16907 4.01668 6.1434 4.11935C6.09207 4.22201 6.06641 4.32467 6.06641 4.42733C6.06641 4.53 6.06641 4.63266 6.09207 4.73532C6.11774 4.83799 6.16907 4.94065 6.2204 5.01765C6.27173 5.09464 6.37439 5.17164 6.47706 5.22297C6.55405 5.2743 6.65672 5.29997 6.78505 5.29997C6.83638 5.32563 6.93904 5.32563 7.0417 5.29997Z" fill="black"/>
<path fill-rule="evenodd" clip-rule="evenodd" d="M1.37111 6.40283L17.8228 39.5629C17.8742 39.6913 17.9768 39.7939 18.0795 39.8709C18.3361 40.0249 18.6441 40.0249 18.9008 39.8709C19.0291 39.7939 19.1318 39.6913 19.2088 39.5629L29.2441 20.1853L29.2697 20.1597L35.6862 6.37717C35.7375 6.27451 35.7632 6.17184 35.7632 6.06918C35.7632 5.96652 35.7632 5.86385 35.7118 5.76119C35.6862 5.65853 35.6348 5.55587 35.5578 5.47887C35.5065 5.40187 35.4038 5.32487 35.3268 5.27354C35.2498 5.22221 35.1472 5.19655 35.0188 5.19655C34.9162 5.19655 34.8135 5.19655 34.7109 5.22221C34.6082 5.24788 34.5055 5.29921 34.4285 5.37621C34.3515 5.4532 34.2745 5.5302 34.2489 5.63286L27.8325 19.4153L18.4901 37.4583L2.73139 5.63286C2.68006 5.55587 2.60306 5.4532 2.55173 5.37621C2.47473 5.29921 2.37207 5.24788 2.26941 5.22221C2.16674 5.17088 2.06408 5.17088 1.96142 5.19655C1.85875 5.19655 1.75609 5.22221 1.65343 5.27354C1.57643 5.32487 1.47377 5.40187 1.42244 5.47887C1.37111 5.55587 1.31978 5.65853 1.29411 5.76119C1.26844 5.86385 1.24278 5.96652 1.26844 6.06918C1.29411 6.19751 1.31978 6.30017 1.37111 6.40283Z" fill="black"/>
<path fill-rule="evenodd" clip-rule="evenodd" d="M9.24682 21.1856H27.5721C27.6748 21.1856 27.7775 21.16 27.8801 21.1343C27.9828 21.1086 28.0598 21.0316 28.1111 20.9546C28.1881 20.8776 28.2394 20.8006 28.2651 20.698C28.3421 20.4927 28.3421 20.2873 28.2651 20.082C28.2394 19.9793 28.1624 19.9023 28.1111 19.8253C28.0341 19.7483 27.9571 19.697 27.8801 19.6457C27.7775 19.62 27.6748 19.5944 27.5721 19.5944H9.24682C9.14415 19.5944 9.04149 19.62 8.93883 19.6457C8.83616 19.6714 8.75917 19.7483 8.70784 19.8253C8.63084 19.9023 8.57951 19.9793 8.55384 20.082C8.47684 20.2873 8.47684 20.4927 8.55384 20.698C8.57951 20.8006 8.63084 20.8776 8.70784 20.9546C8.78483 21.0316 8.86183 21.083 8.93883 21.1343C9.04149 21.16 9.14415 21.16 9.24682 21.1856ZM60.3216 14.2816H48.4127C48.31 14.2816 48.2074 14.3072 48.1047 14.3329C48.002 14.3585 47.925 14.4355 47.8737 14.5125C47.7967 14.5895 47.7454 14.6665 47.7197 14.7692C47.694 14.8719 47.6684 14.9745 47.6684 15.0772V24.9585C47.6684 25.0611 47.694 25.1638 47.7197 25.2665C47.7454 25.3691 47.7967 25.4461 47.8737 25.5231C47.9507 25.6001 48.0277 25.6515 48.1047 25.7028C48.2074 25.7285 48.31 25.7541 48.4127 25.7541H60.3216V27.4224H48.4127C48.2587 27.4224 48.1047 27.3967 47.9507 27.3711C47.7967 27.3454 47.6427 27.2941 47.4887 27.2427C47.3347 27.1914 47.2064 27.1144 47.0781 27.0374C46.9497 26.9347 46.8471 26.8321 46.7188 26.7294C46.4878 26.4984 46.3338 26.2418 46.2054 25.9594C46.1541 25.8055 46.1028 25.6515 46.0771 25.4975C46.0514 25.3435 46.0258 25.1895 46.0258 25.0355V15.1029C46.0258 14.9489 46.0514 14.7949 46.0771 14.6409C46.1028 14.4869 46.1541 14.3329 46.2054 14.1789C46.2568 14.0249 46.3338 13.8709 46.4108 13.7426C46.4878 13.6142 46.5904 13.4859 46.7188 13.3833C46.8214 13.2806 46.9497 13.1779 47.0781 13.0753C47.2064 12.9983 47.3347 12.9213 47.4887 12.8699C47.6427 12.8186 47.7967 12.7673 47.9507 12.7416C48.1047 12.7159 48.2587 12.6903 48.4127 12.6903H60.3216V14.2816ZM82.6764 12.6133V14.2816H71.2038V19.1837H80.4178V20.8776H71.2038V25.7798H82.6764V27.4481H69.6126V12.6133H82.6764Z" fill="black"/>
<path d="M106.318 15.1302V19.4677C106.318 19.6217 106.292 19.7757 106.266 19.9297C106.241 20.0837 106.189 20.2377 106.138 20.3917C106.087 20.5457 106.01 20.6997 105.933 20.828C105.83 20.9563 105.753 21.0846 105.625 21.1873C105.522 21.29 105.394 21.3926 105.265 21.4953C105.137 21.5723 105.009 21.6493 104.855 21.7006C104.701 21.752 104.547 21.8033 104.393 21.8546C104.239 21.8803 104.085 21.9059 103.931 21.9059H101.749L106.241 27.4241H104.085L99.6188 21.9059H94.383C94.1264 21.9059 93.8697 21.8803 93.613 21.8289V27.4241H91.9961V12.6406H103.956C104.11 12.6406 104.264 12.6663 104.418 12.692C104.572 12.7176 104.726 12.769 104.88 12.8203C105.034 12.8716 105.163 12.9486 105.291 13.0513C105.548 13.2309 105.753 13.4619 105.933 13.7186C106.01 13.8469 106.087 14.0009 106.138 14.1549C106.189 14.3089 106.241 14.4629 106.266 14.6169C106.292 14.7965 106.318 14.9762 106.318 15.1302ZM94.3573 20.2633H103.931C104.033 20.2633 104.136 20.2377 104.239 20.212C104.341 20.1863 104.418 20.135 104.47 20.0323C104.547 19.9554 104.598 19.8784 104.624 19.7757C104.649 19.673 104.675 19.5704 104.675 19.4677V15.1302C104.675 14.9249 104.598 14.7195 104.47 14.5656C104.341 14.4116 104.136 14.3089 103.931 14.3089H94.3573C94.2547 14.3089 94.152 14.3346 94.0493 14.3602C93.9467 14.3859 93.8697 14.4629 93.8184 14.5399C93.7414 14.6169 93.69 14.6939 93.6644 14.7965C93.6387 14.8992 93.613 15.0019 93.613 15.1045V19.442C93.613 19.6474 93.69 19.8527 93.8697 20.0067C93.9724 20.1607 94.1777 20.2633 94.3573 20.2633Z" fill="black"/>
<path fill-rule="evenodd" clip-rule="evenodd" d="M114.891 12.6133H129.212V14.2816H122.873V27.4224H121.256V14.2816H114.891V12.6133ZM137.938 27.4481V12.6389H139.555V27.4481H137.938ZM161.089 12.6133H163.168L157.188 20.0307L163.193 27.4481H161.089L155.75 20.8776H151.131V27.4481H149.514V12.6389H151.156V19.2094H155.776L161.089 12.6133Z" fill="black"/>
</g>
<defs>
<clipPath id="clip0_1841_19020">
<rect width="162.387" height="40" fill="white" transform="translate(0.804688)"/>
</clipPath>
</defs>
</svg>
