<svg width="90" height="21" viewBox="0 0 90 21" fill="none" xmlns="http://www.w3.org/2000/svg">
<path d="M3.0708 9.98792C3.0708 4.5466 6.02633 2.6358 12.7535 2.6358C13.9241 2.62747 15.0937 2.70592 16.2531 2.87055L18.0398 0.523128C16.3047 0.153787 14.5352 -0.0209636 12.7627 0.00200113C4.265 0.00200113 0 3.07008 0 9.98792C0 14.063 1.48007 16.8095 4.4333 18.3823L6.11624 16.1734C4.03677 15.0583 3.0708 13.0936 3.0708 9.98792Z" fill="#F0F0F0"/>
<path d="M21.1008 1.61719L19.4179 3.82376C21.4927 4.93174 22.4564 6.8754 22.4564 9.98808C22.4564 15.4294 19.5009 17.3684 12.7737 17.3684C11.6009 17.38 10.4288 17.3031 9.26716 17.1383L7.48047 19.4857C9.21699 19.8553 10.9883 20.0285 12.7622 20.0022C21.2622 20.0022 25.5272 16.9059 25.5272 9.98808C25.5272 5.91766 24.0494 3.18057 21.1008 1.61719Z" fill="#F0F0F0"/>
<path d="M31.6466 6.8169V4.28638H28.5273V20.0141H31.6466V13.8592C31.6378 12.0465 32.3307 10.3034 33.5751 9.00726C34.8196 7.71112 36.5154 6.96635 38.2954 6.93427H38.8556V4H38.3945C35.6119 4 33.1197 5.06573 31.6466 6.8169Z" fill="#F0F0F0"/>
<path d="M55.4435 10.8901C55.4498 12.5121 54.828 14.0712 53.7128 15.2296C52.5977 16.3879 51.0791 17.052 49.4864 17.0779H49.4149C46.4179 17.0779 44.9724 15.545 44.9724 12.3831V3.73047H41.8555V12.5544C41.8555 17.214 44.5182 19.9957 48.9792 19.9957C51.6073 19.9957 53.8943 19.0333 55.4343 17.3126V19.9957H58.542V3.73047H55.4435V10.8901Z" fill="#F0F0F0"/>
<path d="M83.2694 3.73047C80.3991 3.73047 77.907 5.07554 76.5283 7.30324C75.5094 4.98868 73.416 3.73047 70.5343 3.73047C68.109 3.73047 65.965 4.66944 64.5402 6.32437V3.74221H61.4395V19.9957H64.5471V11.0755C64.5438 10.5154 64.6931 9.96533 64.9783 9.48634C66.1194 7.6084 67.7978 6.64596 69.9741 6.64596C72.7613 6.64596 74.1745 8.2023 74.1745 11.2751V19.9957H77.2984L77.2638 17.7093V11.1108C77.2596 10.5519 77.4072 10.0027 77.6903 9.5239C78.843 7.61545 80.5328 6.65066 82.7184 6.65066C85.5056 6.65066 86.9188 8.207 86.9188 11.2798V19.9957H89.9988V11.1178C89.9896 6.49103 87.4767 3.73047 83.2694 3.73047Z" fill="#F0F0F0"/>
</svg>
