<svg width="171" height="36" viewBox="0 0 171 36" fill="none" xmlns="http://www.w3.org/2000/svg">
<g clip-path="url(#clip0_1551_15000)">
<path d="M30.165 10.9979C29.4273 10.5412 28.4686 10.5412 27.6573 10.9979L21.9045 14.4989L17.9956 16.7822L12.2429 20.2833C11.5054 20.7399 10.5467 20.7399 9.73538 20.2833L5.1627 17.5434C4.42517 17.0867 3.9089 16.2495 3.9089 15.3361V9.93234C3.9089 9.01902 4.35142 8.18182 5.1627 7.72516L9.66162 5.06131C10.3991 4.60465 11.358 4.60465 12.1692 5.06131L16.6682 7.72516C17.4057 8.18182 17.9219 9.01902 17.9219 9.93234V13.4334L21.8308 11.074V7.57294C21.8308 6.65962 21.3883 5.82241 20.5771 5.36575L12.2429 0.342495C11.5054 -0.114165 10.5467 -0.114165 9.73538 0.342495L1.2538 5.36575C0.442517 5.82241 0 6.65962 0 7.57294V17.6956C0 18.6088 0.442517 19.4461 1.2538 19.9027L9.73538 24.926C10.4729 25.3827 11.4317 25.3827 12.2429 24.926L17.9956 21.501L21.9045 19.1416L27.6573 15.7167C28.3949 15.2601 29.3536 15.2601 30.165 15.7167L34.6638 18.3806C35.4013 18.8372 35.9177 19.6744 35.9177 20.5877V25.9915C35.9177 26.9048 35.4751 27.7421 34.6638 28.1987L30.165 30.9387C29.4273 31.3954 28.4686 31.3954 27.6573 30.9387L23.1584 28.2748C22.4209 27.8182 21.9045 26.981 21.9045 26.0676V22.5666L17.9956 24.926V28.4271C17.9956 29.3403 18.4382 30.1776 19.2495 30.6342L27.7311 35.6576C28.4686 36.1142 29.4273 36.1142 30.2387 35.6576L38.7202 30.6342C39.4578 30.1776 39.974 29.3403 39.974 28.4271V18.3044C39.974 17.3911 39.5315 16.5539 38.7202 16.0973L30.165 10.9979Z" fill="#8247E5"/>
<path d="M55.5483 32.7583V24.3545C56.4477 25.502 58.08 26.1433 59.9787 26.1433C64.8089 26.1433 68.0735 22.667 68.0735 17.3683C68.0735 12.0695 65.0754 8.59326 60.3785 8.59326C58.2132 8.59326 56.5476 9.40326 55.5483 10.7195V8.86326H50.918V32.7583H55.5483ZM59.4125 22.0933C56.9141 22.0933 55.2818 20.2033 55.2818 17.3683C55.2818 14.4995 56.9141 12.6095 59.4125 12.6095C61.8442 12.6095 63.5098 14.4995 63.5098 17.3683C63.5098 20.2033 61.8442 22.0933 59.4125 22.0933Z" fill="#CBCBCB"/>
<path d="M78.5875 26.1433C83.7508 26.1433 87.4484 22.4308 87.4484 17.3683C87.4484 12.3058 83.7508 8.59326 78.5875 8.59326C73.4242 8.59326 69.7266 12.3058 69.7266 17.3683C69.7266 22.4308 73.4242 26.1433 78.5875 26.1433ZM78.5875 22.0933C76.0891 22.0933 74.3902 20.1695 74.3902 17.3683C74.3902 14.5333 76.0891 12.6095 78.5875 12.6095C81.0858 12.6095 82.7847 14.5333 82.7847 17.3683C82.7847 20.1695 81.0858 22.0933 78.5875 22.0933Z" fill="#CBCBCB"/>
<path d="M94.8784 25.8734V1.47217H90.248V25.8734H94.8784Z" fill="#CBCBCB"/>
<path d="M108.796 8.86328L105.298 19.832L101.767 8.86328H97.0371L103.133 25.7383L100.668 32.7583H105.099L107.464 25.8058L113.559 8.86328H108.796Z" fill="#CBCBCB"/>
<path d="M126.564 10.5508C125.631 9.36951 123.966 8.59326 121.934 8.59326C117.037 8.59326 114.072 12.0695 114.072 17.3683C114.072 22.667 117.037 26.1433 122 26.1433C123.966 26.1433 125.731 25.4008 126.597 24.152V26.3795C126.597 27.9658 125.565 29.0795 124.166 29.0795H116.437V32.7583H124.899C128.696 32.7583 131.228 30.4295 131.228 26.8858V8.86326H126.564V10.5508ZM122.733 22.0933C120.268 22.0933 118.636 20.237 118.636 17.3683C118.636 14.4995 120.268 12.6095 122.733 12.6095C125.232 12.6095 126.864 14.4995 126.864 17.3683C126.864 20.237 125.232 22.0933 122.733 22.0933Z" fill="#CBCBCB"/>
<path d="M142.9 26.1433C148.063 26.1433 151.761 22.4308 151.761 17.3683C151.761 12.3058 148.063 8.59326 142.9 8.59326C137.737 8.59326 134.039 12.3058 134.039 17.3683C134.039 22.4308 137.737 26.1433 142.9 26.1433ZM142.9 22.0933C140.402 22.0933 138.703 20.1695 138.703 17.3683C138.703 14.5333 140.402 12.6095 142.9 12.6095C145.398 12.6095 147.097 14.5333 147.097 17.3683C147.097 20.1695 145.398 22.0933 142.9 22.0933Z" fill="#CBCBCB"/>
<path d="M158.959 25.8733V16.5583C158.959 14.3645 160.391 12.7783 162.423 12.7783C164.355 12.7783 165.654 14.2633 165.654 16.322V25.8733H170.318V15.2758C170.318 11.3608 167.853 8.59326 164.055 8.59326C161.757 8.59326 159.891 9.57201 158.959 11.2258V8.86326H154.295V25.8733H158.959Z" fill="#CBCBCB"/>
</g>
<defs>
<clipPath id="clip0_1551_15000">
<rect width="171" height="36" fill="white"/>
</clipPath>
</defs>
</svg>
