<svg width="171" height="36" viewBox="0 0 171 36" fill="none" xmlns="http://www.w3.org/2000/svg">
<g clip-path="url(#clip0_1841_18871)">
<path d="M30.165 10.9979C29.4273 10.5412 28.4686 10.5412 27.6573 10.9979L21.9045 14.4989L17.9956 16.7822L12.2429 20.2833C11.5054 20.7399 10.5467 20.7399 9.73538 20.2833L5.1627 17.5434C4.42517 17.0867 3.9089 16.2495 3.9089 15.3361V9.93234C3.9089 9.01902 4.35142 8.18182 5.1627 7.72516L9.66162 5.06131C10.3991 4.60465 11.358 4.60465 12.1692 5.06131L16.6682 7.72516C17.4057 8.18182 17.9219 9.01902 17.9219 9.93234V13.4334L21.8308 11.074V7.57294C21.8308 6.65962 21.3883 5.82241 20.5771 5.36576L12.2429 0.342495C11.5054 -0.114165 10.5467 -0.114165 9.73538 0.342495L1.2538 5.36576C0.442517 5.82241 0 6.65962 0 7.57294V17.6956C0 18.6089 0.442517 19.4461 1.2538 19.9027L9.73538 24.926C10.4729 25.3827 11.4317 25.3827 12.2429 24.926L17.9956 21.501L21.9045 19.1416L27.6573 15.7167C28.3949 15.2601 29.3536 15.2601 30.165 15.7167L34.6638 18.3806C35.4013 18.8372 35.9177 19.6744 35.9177 20.5877V25.9916C35.9177 26.9048 35.4751 27.7421 34.6638 28.1987L30.165 30.9387C29.4273 31.3954 28.4686 31.3954 27.6573 30.9387L23.1584 28.2748C22.4209 27.8182 21.9045 26.981 21.9045 26.0676V22.5666L17.9956 24.926V28.4271C17.9956 29.3403 18.4382 30.1776 19.2495 30.6342L27.7311 35.6576C28.4686 36.1142 29.4273 36.1142 30.2387 35.6576L38.7202 30.6342C39.4578 30.1776 39.974 29.3403 39.974 28.4271V18.3044C39.974 17.3911 39.5315 16.5539 38.7202 16.0973L30.165 10.9979Z" fill="#8247E5"/>
<path d="M55.5483 32.7588V24.355C56.4477 25.5025 58.08 26.1438 59.9787 26.1438C64.8089 26.1438 68.0735 22.6675 68.0735 17.3688C68.0735 12.07 65.0754 8.59375 60.3785 8.59375C58.2132 8.59375 56.5476 9.40375 55.5483 10.72V8.86375H50.918V32.7588H55.5483ZM59.4125 22.0938C56.9141 22.0938 55.2818 20.2038 55.2818 17.3688C55.2818 14.5 56.9141 12.61 59.4125 12.61C61.8442 12.61 63.5098 14.5 63.5098 17.3688C63.5098 20.2038 61.8442 22.0938 59.4125 22.0938Z" fill="#353535"/>
<path d="M78.5875 26.1438C83.7508 26.1438 87.4484 22.4313 87.4484 17.3688C87.4484 12.3063 83.7508 8.59375 78.5875 8.59375C73.4242 8.59375 69.7266 12.3063 69.7266 17.3688C69.7266 22.4313 73.4242 26.1438 78.5875 26.1438ZM78.5875 22.0938C76.0891 22.0938 74.3902 20.17 74.3902 17.3688C74.3902 14.5338 76.0891 12.61 78.5875 12.61C81.0858 12.61 82.7847 14.5338 82.7847 17.3688C82.7847 20.17 81.0858 22.0938 78.5875 22.0938Z" fill="#353535"/>
<path d="M94.8803 25.8739V1.47266H90.25V25.8739H94.8803Z" fill="#353535"/>
<path d="M108.798 8.86328L105.3 19.832L101.769 8.86328H97.0391L103.135 25.7383L100.67 32.7583H105.1L107.466 25.8058L113.561 8.86328H108.798Z" fill="#353535"/>
<path d="M126.562 10.5512C125.629 9.37 123.964 8.59375 121.932 8.59375C117.035 8.59375 114.07 12.07 114.07 17.3688C114.07 22.6675 117.035 26.1438 121.998 26.1438C123.964 26.1438 125.729 25.4013 126.596 24.1525V26.38C126.596 27.9663 125.563 29.08 124.164 29.08H116.435V32.7588H124.897C128.694 32.7588 131.226 30.43 131.226 26.8863V8.86375H126.562V10.5512ZM122.731 22.0938C120.266 22.0938 118.634 20.2375 118.634 17.3688C118.634 14.5 120.266 12.61 122.731 12.61C125.23 12.61 126.862 14.5 126.862 17.3688C126.862 20.2375 125.23 22.0938 122.731 22.0938Z" fill="#353535"/>
<path d="M142.9 26.1438C148.063 26.1438 151.761 22.4313 151.761 17.3688C151.761 12.3063 148.063 8.59375 142.9 8.59375C137.737 8.59375 134.039 12.3063 134.039 17.3688C134.039 22.4313 137.737 26.1438 142.9 26.1438ZM142.9 22.0938C140.402 22.0938 138.703 20.17 138.703 17.3688C138.703 14.5338 140.402 12.61 142.9 12.61C145.398 12.61 147.097 14.5338 147.097 17.3688C147.097 20.17 145.398 22.0938 142.9 22.0938Z" fill="#353535"/>
<path d="M158.96 25.8738V16.5588C158.96 14.365 160.393 12.7788 162.425 12.7788C164.357 12.7788 165.656 14.2638 165.656 16.3225V25.8738H170.32V15.2763C170.32 11.3613 167.855 8.59375 164.057 8.59375C161.759 8.59375 159.893 9.5725 158.96 11.2263V8.86375H154.297V25.8738H158.96Z" fill="#353535"/>
</g>
<defs>
<clipPath id="clip0_1841_18871">
<rect width="171" height="36" fill="white"/>
</clipPath>
</defs>
</svg>
