<svg width="68" height="40" viewBox="0 0 68 40" fill="none" xmlns="http://www.w3.org/2000/svg">
<g clip-path="url(#clip0_1841_19029)">
<path d="M24.7439 39.0439L19.3093 36.082L17.9961 39.9999L24.7337 39.0464C24.7132 39.0464 24.7029 39.0464 24.7439 39.0439Z" fill="#1C1C1C"/>
<path d="M24.7445 39.043L24.7344 39.0455C24.7597 39.0455 24.8029 39.043 24.7445 39.043Z" fill="#1C1C1C"/>
<path d="M43.4492 37.1381L47.8241 35.8499L49.4675 30.6641L45.428 30.9405L43.4492 37.1381Z" fill="#1C1C1C"/>
<path d="M53.8629 3.91422L50.5197 1.74609L48.6484 7.69766L52.327 8.80331L53.8629 3.91422Z" fill="#1C1C1C"/>
<path d="M31.3047 2.52314C31.3047 2.52314 33.5702 3.21796 34.4636 3.47154L37.6839 4.42501L37.7402 0L32.0778 1.12591L31.3047 2.52314Z" fill="#1C1C1C"/>
<path d="M8.82422 19.0526L12.7997 19.0628L14.2153 14.6226L10.6008 13.6641C10.2168 14.8838 9.21593 17.8329 8.82422 19.0526Z" fill="#1C1C1C"/>
<path d="M1.42578 14.9262L4.40035 18.025L6.1129 12.5273L2.46252 11.5586L1.42578 14.9262Z" fill="#1C1C1C"/>
<path d="M64.4285 32.6672C64.3671 31.1102 63.9344 30.6005 63.0155 29.6445L58.2234 29.964C59.5597 30.8034 60.3788 31.843 60.5478 33.2377C60.7347 34.7694 59.0707 36.5394 57.4606 36.5394C56.5621 36.5394 56.1141 35.8345 56.1141 35.0255C56.1397 34.422 56.3522 33.6384 56.6696 33.116H56.6439H52.6045C52.2871 33.9275 52.0234 34.843 52.0234 35.7051C52.0234 38.6593 54.637 39.4175 57.1175 39.4175C59.703 39.4175 61.8431 38.9205 63.1896 36.5394C63.7962 35.4642 64.4797 33.9225 64.4285 32.6672Z" fill="#1C1C1C"/>
<path d="M13.8613 0.402344L1.40244 0.412487L0.429688 3.47322L4.99649 3.46815L2.73869 10.5837L6.39162 11.5523L8.92847 3.46561L12.8885 3.46054L13.8613 0.402344Z" fill="#1C1C1C"/>
<path d="M15.2188 11.3549C15.6668 11.327 16.1173 11.327 16.5653 11.327C17.3051 11.3245 18.4135 11.3777 18.4135 12.3971C18.4161 13.1021 18.1524 13.9921 17.9425 14.6718C17.5483 16.0589 17.0747 17.4434 16.9954 18.8559L21.086 18.8508C20.9785 16.5761 22.4018 14.5881 22.3992 12.3388C22.3992 10.8224 21.237 10.2214 19.8906 9.98557L20.2848 9.93228C23.2158 9.53671 24.849 7.26207 24.8464 4.41182C24.8439 1.25219 22.1765 0.364657 19.4579 0.367193L14.7606 0.372264C13.4243 4.48029 12.1572 8.61114 10.8594 12.7369L14.4713 13.6929L15.2188 11.3549ZM17.7454 3.2707L19.0663 3.26817C20.0442 3.26817 21.0194 3.50147 21.022 4.65273C21.0246 6.06518 19.9955 8.44628 18.306 8.44628L16.1404 8.44885L17.7454 3.2707Z" fill="#1C1C1C"/>
<path d="M26.2907 18.9015L28.3974 14.9507L33.4404 14.9456L33.2868 18.9192L37.2469 18.9167L37.5618 5.3881L34.1597 4.36616C33.8499 6.90452 33.6759 9.4708 33.6759 12.0167H33.6503L29.8489 12.0193C31.2159 9.45808 32.5265 6.87662 33.7067 4.22923L30.9804 3.41016L22.1719 18.904L26.2907 18.9015Z" fill="#1C1C1C"/>
<path d="M54.3235 18.877L55.3245 15.867L50.0178 15.8747L51.9838 9.72276L48.3053 8.61719L45.0312 18.8847L54.3235 18.877Z" fill="#1C1C1C"/>
<path d="M29.7448 20.0625H24.5457L19.6641 35.1912L25.8768 38.5436C29.5963 38.4041 32.2023 35.6781 32.2023 31.9352C32.2023 30.4974 31.3038 29.3741 29.9061 28.981C32.6529 28.3546 34.4191 26.6024 34.4191 23.7268C34.4166 20.9247 32.2254 20.0625 29.7448 20.0625ZM27.6073 34.575C26.8675 35.673 26.0765 35.7516 24.835 35.7516H23.2248L24.9937 30.3149C26.2864 30.3656 28.5826 30.0536 28.5826 31.9352C28.5826 32.7695 28.0835 33.8954 27.6073 34.575ZM27.2899 27.67H25.8103L27.3667 22.8849C28.5288 22.9381 30.7201 22.573 30.7201 24.3506C30.7483 26.4426 29.4018 27.67 27.2899 27.67Z" fill="#1C1C1C"/>
<path d="M42.3389 6.84375L38.3942 19.9083L34.9102 30.5055L39.093 30.186L42.1137 20.7578H42.1187L46.1992 7.98739C45.6309 7.83017 43.3679 7.11001 42.3389 6.84375Z" fill="#1C1C1C"/>
<path d="M44.2943 20.0898L43.3164 23.1455H47.8858L45.7483 29.9491L49.7365 29.6778L51.8177 23.1455H55.7753L56.7531 20.0898H44.2943Z" fill="#1C1C1C"/>
<path d="M62.4027 19.9023C58.3121 19.9023 55.8828 22.7247 55.8828 26.6476C55.8879 27.2182 56.4025 28.6231 57.4545 29.0921L62.3746 28.7625C61.5375 28.0626 60.0579 26.4118 60.0579 25.5344C60.0579 24.3299 60.7363 22.7551 62.1365 22.7551C63.0862 22.7551 63.6673 23.0163 63.6673 24.0358C63.6673 24.69 63.3499 25.291 63.1656 25.9198H66.967C67.205 25.3696 67.5737 24.1143 67.5737 23.5387C67.5762 20.6859 64.7783 19.9023 62.4027 19.9023Z" fill="#1C1C1C"/>
<path d="M17.2952 20.1719C15.4341 20.1719 15.1679 21.5336 14.7071 22.979C14.5536 23.4989 14.2617 24.1329 14.2617 24.678C14.2617 25.7279 15.2012 25.9282 16.0741 25.9282C17.1416 25.9358 17.7099 25.5808 18.0887 24.5867C18.3473 23.9072 19.0205 22.0382 19.0205 21.3814C19.0205 20.4508 18.0734 20.1719 17.2952 20.1719ZM17.8149 21.5082C17.8149 21.7416 17.5486 22.5023 17.459 22.7686L17.0469 24.0415C16.8856 24.5234 16.6911 25.0762 16.0767 25.0762C15.7286 25.0762 15.5033 24.8758 15.5033 24.5157C15.5033 24.0492 15.8668 23.1844 16.0204 22.7027C16.1739 22.2234 16.3762 21.2674 16.9112 21.0822C17.0315 21.0417 17.1621 21.0264 17.2926 21.0264C17.5358 21.0264 17.8276 21.242 17.8276 21.5007L17.8149 21.5082Z" fill="#1C1C1C"/>
<path d="M22.0312 23.4144L22.3128 22.4914H20.6949L21.1326 21.1144H22.8324L23.1319 20.1914H20.1855L18.4141 25.8513H19.6531L20.421 23.4144H22.0312Z" fill="#1C1C1C"/>
</g>
<defs>
<clipPath id="clip0_1841_19029">
<rect width="67.1429" height="40" fill="white" transform="translate(0.429688)"/>
</clipPath>
</defs>
</svg>
