<svg width="65" height="18" viewBox="0 0 65 18" fill="none" xmlns="http://www.w3.org/2000/svg">
<path d="M7.56749 14.5789C8.11551 14.5789 8.60309 14.4903 9.03022 14.313C9.46541 14.1276 9.8321 13.8657 10.1303 13.5272C10.4285 13.1887 10.6541 12.7777 10.8073 12.2942C10.9684 11.8026 11.049 11.2465 11.049 10.6259V0.193419H15.135V10.6259C15.135 11.7058 14.9577 12.6971 14.6031 13.5997C14.2565 14.5024 13.7569 15.2801 13.1041 15.9328C12.4513 16.5856 11.6575 17.0934 10.7226 17.456C9.78778 17.8187 8.73606 18 7.56749 18C6.39087 18 5.33512 17.8187 4.40027 17.456C3.46541 17.0934 2.67159 16.5856 2.0188 15.9328C1.36602 15.2801 0.866353 14.5024 0.519812 13.5997C0.173271 12.6971 0 11.7058 0 10.6259V0.193419H4.08596V10.6138C4.08596 11.2344 4.16252 11.7905 4.31565 12.2821C4.47683 12.7656 4.70651 13.1807 5.0047 13.5272C5.30289 13.8657 5.66555 14.1276 6.09268 14.313C6.52787 14.4903 7.01947 14.5789 7.56749 14.5789Z" fill="#353535"/>
<path d="M28.0583 3.77166C27.9374 3.96508 27.8085 4.11014 27.6715 4.20685C27.5425 4.30356 27.3733 4.35191 27.1638 4.35191C26.9784 4.35191 26.7769 4.2955 26.5593 4.18267C26.3498 4.06179 26.108 3.92881 25.834 3.78375C25.5681 3.63868 25.2618 3.50974 24.9153 3.39691C24.5687 3.27602 24.1738 3.21558 23.7306 3.21558C22.965 3.21558 22.3928 3.38079 22.014 3.71122C21.6433 4.03358 21.4579 4.4728 21.4579 5.02888C21.4579 5.38348 21.5707 5.67764 21.7964 5.91135C22.0221 6.14506 22.3162 6.34654 22.6789 6.51578C23.0496 6.68502 23.4687 6.84218 23.9361 6.98724C24.4116 7.12424 24.8951 7.2814 25.3867 7.4587C25.8783 7.62794 26.3578 7.82942 26.8253 8.06313C27.3008 8.29684 27.7198 8.59503 28.0825 8.95769C28.4532 9.32035 28.7514 9.7636 28.9771 10.2874C29.2027 10.8032 29.3155 11.4278 29.3155 12.1612C29.3155 12.9752 29.1745 13.7367 28.8924 14.4459C28.6104 15.1551 28.1994 15.7757 27.6594 16.3076C27.1275 16.8314 26.4666 17.2465 25.6769 17.5527C24.8951 17.8509 24.0046 18 23.0053 18C22.4572 18 21.8971 17.9436 21.3249 17.8308C20.7608 17.7179 20.2128 17.5608 19.6809 17.3593C19.149 17.1498 18.6493 16.904 18.1819 16.6219C17.7145 16.3398 17.3075 16.0255 16.9609 15.679L18.1698 13.769C18.2665 13.632 18.3914 13.5191 18.5446 13.4305C18.7057 13.3338 18.879 13.2854 19.0644 13.2854C19.3061 13.2854 19.5479 13.362 19.7897 13.5151C20.0395 13.6682 20.3176 13.8375 20.6238 14.0228C20.9381 14.2082 21.2967 14.3774 21.6997 14.5306C22.1026 14.6837 22.5781 14.7602 23.1262 14.7602C23.8676 14.7602 24.4438 14.5991 24.8548 14.2767C25.2658 13.9463 25.4713 13.4265 25.4713 12.7173C25.4713 12.3062 25.3585 11.9718 25.1329 11.7139C24.9072 11.456 24.609 11.2424 24.2383 11.0732C23.8756 10.904 23.4606 10.7549 22.9932 10.6259C22.5257 10.497 22.0462 10.3559 21.5546 10.2028C21.063 10.0416 20.5835 9.84822 20.1161 9.62257C19.6486 9.38885 19.2296 9.08664 18.8589 8.71592C18.4962 8.33714 18.202 7.86971 17.9764 7.31363C17.7507 6.7495 17.6379 6.05641 17.6379 5.23438C17.6379 4.57354 17.7709 3.92881 18.0368 3.3002C18.3028 2.67159 18.6936 2.11148 19.2094 1.61988C19.7252 1.12827 20.3578 0.737407 21.1073 0.447279C21.8568 0.149093 22.7151 0 23.6822 0C24.2222 0 24.746 0.0443252 25.2538 0.132976C25.7695 0.213567 26.2571 0.338482 26.7165 0.507723C27.1758 0.668905 27.603 0.866353 27.9979 1.10007C28.4008 1.32572 28.7595 1.58361 29.0738 1.87374L28.0583 3.77166Z" fill="#353535"/>
<path d="M47.6954 8.99396C47.6954 10.2673 47.4738 11.4439 47.0305 12.5238C46.5953 13.5957 45.9788 14.5265 45.1809 15.3163C44.3831 16.0981 43.42 16.7105 42.2918 17.1538C41.1715 17.589 39.9264 17.8066 38.5564 17.8066H31.7142V0.193419H38.5564C39.9264 0.193419 41.1715 0.415044 42.2918 0.858294C43.42 1.30154 44.3831 1.91404 45.1809 2.69577C45.9788 3.4775 46.5953 4.40833 47.0305 5.48825C47.4738 6.56011 47.6954 7.72868 47.6954 8.99396ZM43.5127 8.99396C43.5127 8.12357 43.3999 7.33781 43.1742 6.63667C42.9486 5.93553 42.6222 5.34318 42.195 4.85964C41.776 4.36803 41.2602 3.99328 40.6477 3.73539C40.0352 3.46944 39.3381 3.33647 38.5564 3.33647H35.8243V14.6635H38.5564C39.3381 14.6635 40.0352 14.5346 40.6477 14.2767C41.2602 14.0107 41.776 13.636 42.195 13.1525C42.6222 12.6608 42.9486 12.0645 43.1742 11.3633C43.3999 10.6622 43.5127 9.8724 43.5127 8.99396Z" fill="#353535"/>
<path d="M61.9779 13.2492C62.0746 13.2492 62.1713 13.2693 62.2681 13.3096C62.3648 13.3418 62.4574 13.4023 62.5461 13.4909L64.166 15.1954C63.4568 16.1222 62.5662 16.8234 61.4944 17.2989C60.4306 17.7663 59.1693 18 57.7106 18C56.3728 18 55.172 17.7743 54.1082 17.323C53.0525 16.8637 52.1539 16.2351 51.4124 15.4372C50.6791 14.6313 50.1149 13.6803 49.72 12.5843C49.3251 11.4802 49.1277 10.2834 49.1277 8.99396C49.1277 7.68032 49.3413 6.47549 49.7684 5.37945C50.1955 4.27535 50.7959 3.32438 51.5696 2.52653C52.3433 1.72868 53.2701 1.10813 54.35 0.664875C55.4299 0.221625 56.6186 0 57.9161 0C58.577 0 59.1975 0.0604432 59.7778 0.18133C60.3661 0.294156 60.9141 0.455338 61.4218 0.664875C61.9296 0.866353 62.397 1.11216 62.8241 1.40228C63.2513 1.69241 63.63 2.00672 63.9605 2.3452L62.5824 4.19476C62.4937 4.30759 62.3889 4.41236 62.2681 4.50907C62.1472 4.59772 61.9779 4.64204 61.7603 4.64204C61.6153 4.64204 61.4783 4.60981 61.3493 4.54533C61.2204 4.48086 61.0834 4.4043 60.9383 4.31565C60.7932 4.21894 60.6321 4.1182 60.4548 4.01343C60.2855 3.9006 60.08 3.79987 59.8382 3.71122C59.6045 3.61451 59.3265 3.53391 59.0041 3.46944C58.6898 3.40497 58.3191 3.37273 57.892 3.37273C57.215 3.37273 56.5944 3.49765 56.0303 3.74748C55.4742 3.99731 54.9907 4.364 54.5797 4.84755C54.1767 5.32304 53.8624 5.91135 53.6368 6.61249C53.4192 7.30557 53.3104 8.0994 53.3104 8.99396C53.3104 9.89657 53.4313 10.6985 53.673 11.3996C53.9229 12.1007 54.2573 12.6931 54.6764 13.1766C55.1035 13.6521 55.5991 14.0148 56.1633 14.2646C56.7274 14.5144 57.3319 14.6394 57.9766 14.6394C58.3473 14.6394 58.6858 14.6232 58.992 14.591C59.2983 14.5507 59.5844 14.4903 59.8503 14.4097C60.1163 14.321 60.3661 14.2082 60.5998 14.0712C60.8335 13.9261 61.0713 13.7448 61.3131 13.5272C61.4098 13.4466 61.5145 13.3821 61.6274 13.3338C61.7402 13.2774 61.857 13.2492 61.9779 13.2492Z" fill="#353535"/>
</svg>
